<svg width="818" height="818" viewBox="0 0 818 818" fill="none" xmlns="http://www.w3.org/2000/svg">
<circle cx="409" cy="409" r="409" fill="#D9D9D9"/>
<g clip-path="url(#clip0_201_12)">
<path d="M409 9C188.425 9 9 188.45 9 409C9 629.55 188.425 809 409 809C629.575 809 809 629.55 809 409C809 188.45 629.575 9 409 9ZM409 793.175C197.15 793.175 24.8 620.875 24.8 409C24.8 197.15 197.15 24.825 409 24.825C620.875 24.825 793.2 197.15 793.2 409C793.2 620.875 620.875 793.175 409 793.175Z" fill="black"/>
<path d="M520.875 574.9C519.8 574.3 518.55 573.825 517.2 573.6C515.8 573.375 514.375 573.25 512.875 573.25H502.65V591.175H512.875C514.375 591.175 515.8 591.05 517.2 590.825C518.6 590.575 519.8 590.175 520.875 589.5C521.95 588.875 522.75 587.95 523.425 586.775C524.05 585.65 524.4 584.125 524.4 582.175C524.4 580.275 524.05 578.725 523.425 577.55C522.75 576.375 521.95 575.55 520.875 574.9Z" fill="black"/>
<path d="M697.625 438.45C695.325 435.475 691.825 433.875 687.125 433.875C684.025 433.875 681.45 434.475 679.4 435.7C677.35 437.025 675.75 438.575 674.55 440.375C673.325 442.225 672.475 444.2 671.95 446.225C671.45 448.25 671.175 450.1 671.075 451.725H702.475C701.55 445.975 699.975 441.475 697.625 438.45Z" fill="black"/>
<path d="M463.725 579C462.45 577.125 460.75 575.55 458.7 574.375C456.65 573.25 454.1 572.675 451.175 572.675C448.2 572.675 445.7 573.25 443.65 574.375C441.55 575.55 439.9 577.05 438.625 579C437.35 580.95 436.425 583.125 435.85 585.575C435.275 588.075 434.95 590.55 434.95 593.2C434.95 595.725 435.275 598.125 435.85 600.55C436.425 602.9 437.375 605.05 438.625 606.925C439.875 608.8 441.6 610.4 443.65 611.475C445.7 612.65 448.2 613.2 451.175 613.2C454.1 613.2 456.65 612.65 458.7 611.475C460.75 610.4 462.4 608.85 463.725 606.925C465 605.05 465.975 602.9 466.525 600.55C467.1 598.125 467.4 595.725 467.4 593.2C467.4 590.6 467.125 588.075 466.525 585.575C465.975 583.125 465 580.925 463.725 579Z" fill="black"/>
<path d="M262.275 464.85C260.85 465.2 259.375 465.45 257.8 465.675C256.2 465.925 254.675 466.175 253.225 466.45C251.7 466.85 250.275 467.25 248.9 467.775C247.55 468.3 246.325 469.05 245.275 469.975C244.225 470.9 243.4 472.075 242.775 473.6C242.125 475.025 241.825 476.8 241.825 478.85C241.825 481 242.125 482.8 242.775 484.1C243.4 485.475 244.275 486.6 245.35 487.375C246.45 488.175 247.725 488.75 249.175 489.1C250.6 489.4 252.1 489.525 253.65 489.525C257.45 489.525 260.375 488.8 262.45 487.3C264.55 485.75 266.1 483.975 267.075 481.875C268.075 479.7 268.675 477.6 268.9 475.45C269.15 473.25 269.25 471.55 269.25 470.25V461.575C268.45 462.5 267.425 463.125 266.2 463.625C265 464.15 263.675 464.575 262.275 464.85Z" fill="black"/>
<path d="M409 55.1748C213.6 55.1748 55.15 213.6 55.15 409C55.15 604.4 213.6 762.8 409 762.8C604.45 762.8 762.85 604.4 762.85 409C762.85 213.6 604.45 55.1748 409 55.1748ZM208.875 502.675H187.525V452.725H148.325V502.675H126.975V386.825H148.325V431.275H187.525V386.825H208.875V502.675ZM271.45 502.675C271.075 501.375 270.775 500.075 270.55 498.725C270.35 497.375 270.175 496.025 270.075 494.6C266.975 498.35 263.375 501.1 259.2 502.6C255.025 504.15 250.775 504.975 246.45 504.975C243.1 504.975 239.975 504.45 237.075 503.4C234.175 502.375 231.65 500.8 229.475 498.775C227.325 496.725 225.625 494.1 224.375 490.975C223.125 487.8 222.55 484.125 222.55 479.8C222.55 475.075 223.225 471.05 224.6 467.975C225.95 464.9 227.75 462.5 230.025 460.65C232.275 458.8 234.825 457.425 237.675 456.5C240.525 455.6 243.45 454.85 246.45 454.3C249.425 453.775 252.275 453.275 255 452.975C257.725 452.65 260.125 452.2 262.25 451.525C264.375 450.85 266.075 449.95 267.35 448.7C268.6 447.4 269.225 445.6 269.225 443.25C269.225 440.7 268.875 438.75 268.2 437.35C267.525 435.85 266.625 434.75 265.475 433.925C264.375 433.075 263.025 432.55 261.55 432.275C260.025 432.025 258.425 431.9 256.725 431.9C253.025 431.9 250.05 432.825 247.85 434.8C245.625 436.7 244.325 439.975 243.95 444.575H224.725C225 439.125 226.125 434.625 228.125 431.1C230.1 427.5 232.675 424.6 235.725 422.45C238.825 420.275 242.25 418.75 246.05 417.8C249.85 416.925 253.75 416.425 257.75 416.425C261.275 416.425 264.85 416.725 268.45 417.275C272.075 417.875 275.375 419.05 278.35 420.825C281.35 422.525 283.775 424.975 285.675 428.1C287.6 431.275 288.55 435.325 288.55 440.25V483.9C288.55 487.65 288.7 491.325 289.075 494.8C289.45 498.275 290.075 500.825 291 502.6H271.45V502.675ZM323.275 418.825V502.675H304V418.825H323.275ZM304.025 405.85V386.825H323.3V405.85H304.025ZM353.075 612.65C352.025 615 350.45 617 348.35 618.7C346.275 620.35 343.675 621.7 340.575 622.675C337.475 623.675 333.9 624.175 329.825 624.175C326.55 624.175 323.35 623.725 320.25 622.9C317.15 622.075 314.45 620.8 312.1 619.05C309.75 617.35 307.875 615.15 306.45 612.45C305.025 609.825 304.35 606.625 304.4 602.925H317.125C317.125 604.9 317.475 606.6 318.2 608.025C318.9 609.425 319.85 610.55 321.075 611.375C322.275 612.25 323.675 612.925 325.275 613.325C326.85 613.725 328.55 613.925 330.35 613.925C331.525 613.925 332.75 613.8 334.075 613.65C335.425 613.45 336.675 613.075 337.825 612.475C338.975 611.925 339.975 611.15 340.775 610.15C341.55 609.2 341.95 607.975 341.95 606.475C341.95 604.9 341.425 603.6 340.4 602.575C339.375 601.55 338.025 600.725 336.35 599.975C334.65 599.325 332.75 598.675 330.625 598.275C328.525 597.75 326.375 597.225 324.2 596.625C321.975 596.1 319.775 595.375 317.675 594.575C315.55 593.8 313.65 592.725 311.95 591.425C310.3 590.15 308.95 588.625 307.9 586.725C306.875 584.825 306.35 582.475 306.35 579.675C306.35 576.65 307 573.95 308.325 571.725C309.625 569.475 311.35 567.575 313.45 566.075C315.575 564.55 317.95 563.45 320.65 562.7C323.325 562.025 325.975 561.625 328.675 561.625C331.8 561.625 334.8 561.975 337.65 562.7C340.525 563.35 343.075 564.45 345.3 566.075C347.525 567.625 349.325 569.625 350.625 572.025C351.95 574.5 352.6 577.4 352.6 580.85H339.875C339.75 579.125 339.375 577.6 338.775 576.425C338.125 575.25 337.25 574.375 336.2 573.7C335.15 573.025 334 572.525 332.6 572.275C331.225 571.925 329.725 571.825 328.15 571.825C327.1 571.825 326.05 571.925 324.975 572.175C323.925 572.4 322.95 572.75 322.1 573.35C321.25 573.875 320.525 574.625 319.975 575.475C319.425 576.325 319.15 577.4 319.15 578.625C319.15 579.8 319.35 580.725 319.8 581.45C320.275 582.15 321.125 582.825 322.45 583.4C323.75 583.95 325.575 584.625 327.875 585.225C330.2 585.875 333.225 586.725 336.95 587.65C337.65 587.8 338.625 588.05 339.8 588.325C340.975 588.6 342.2 589.025 343.5 589.6C344.825 590.125 346.125 590.825 347.425 591.65C348.75 592.45 349.975 593.475 351.05 594.725C352.125 595.95 353.025 597.425 353.675 599.125C354.35 600.825 354.7 602.775 354.7 605.025C354.7 607.775 354.175 610.325 353.075 612.65ZM358.725 454.45C358.075 457.725 357.775 461.225 357.775 464.85V502.675H338.475V418.825H356.8V434.4H357.075C357.975 431.8 359.2 429.425 360.75 427.175C362.275 424.975 364.05 423.125 366.025 421.475C368 419.925 370.175 418.725 372.475 417.825C374.8 416.95 377.125 416.5 379.45 416.5C380.9 416.5 382.325 416.75 383.675 417.3V438.7C382.75 438.5 381.675 438.25 380.4 438.15C379.15 437.975 377.9 437.9 376.725 437.9C373.2 437.9 370.225 438.55 367.775 440C365.325 441.425 363.35 443.35 361.875 445.725C360.425 448.25 359.35 451.15 358.725 454.45ZM412.9 622.8H399.775V597.05H375.6V622.8H362.475V563.075H375.6V585.975H399.775V563.075H412.9V622.8ZM478.525 605.35C477.2 609.075 475.3 612.375 472.75 615.2C470.25 618 467.2 620.15 463.55 621.825C459.925 623.45 455.8 624.275 451.2 624.275C446.55 624.275 442.425 623.5 438.8 621.825C435.15 620.225 432.1 618.025 429.625 615.2C427.125 612.425 425.175 609.125 423.85 605.35C422.525 601.525 421.825 597.525 421.825 593.2C421.825 588.8 422.5 584.65 423.85 580.85C425.2 577.025 427.15 573.65 429.625 570.85C432.125 567.975 435.175 565.725 438.8 564.1C442.45 562.55 446.575 561.7 451.2 561.7C455.825 561.7 459.95 562.475 463.55 564.1C467.2 565.7 470.275 567.95 472.75 570.85C475.325 573.65 477.225 577.025 478.525 580.85C479.875 584.65 480.525 588.8 480.525 593.2C480.525 597.475 479.875 601.475 478.525 605.35ZM480.625 498.675C477.65 500.9 474.225 502.55 470.375 503.475C466.55 504.45 462.6 504.975 458.65 504.975C454.575 504.975 450.6 504.45 446.675 503.475C442.825 502.55 439.325 500.875 436.3 498.55C433.25 496.25 430.775 493.175 428.825 489.4C426.875 485.675 425.8 480.95 425.65 475.45H443.925C443.925 477.925 444.375 480.075 445.25 481.875C446.125 483.65 447.2 485.075 448.575 486.25C449.95 487.375 451.475 488.225 453.275 488.75C455 489.275 456.9 489.525 458.775 489.525C460.15 489.525 461.575 489.35 463.075 489C464.575 488.575 465.925 488 467.15 487.2C468.35 486.4 469.375 485.375 470.2 484C471 482.625 471.4 480.9 471.4 478.875C471.4 477.175 470.9 475.65 469.875 474.425C468.9 473.15 467.45 472.025 465.625 471.05C463.775 470.075 461.475 469.225 458.775 468.425C456.075 467.575 453 466.775 449.55 465.875C446.75 465.15 444 464.225 441.325 463.175C438.7 462.2 436.3 460.825 434.225 459.175C432.125 457.55 430.45 455.35 429.175 452.8C427.925 450.25 427.275 447.175 427.275 443.475C427.275 438.175 428.15 433.775 429.9 430.3C431.65 426.775 434 424.05 436.875 422C439.75 420.05 443.025 418.6 446.65 417.8C450.275 417.025 453.975 416.575 457.8 416.575C461.575 416.575 465.275 417.025 468.85 417.9C472.425 418.725 475.625 420.25 478.425 422.275C481.2 424.3 483.55 427.075 485.4 430.5C487.225 433.9 488.35 438.225 488.725 443.4H470.425C470.125 438.95 468.725 435.925 466.2 434.425C463.675 432.825 460.65 432.05 457.25 432.05C456.175 432.05 455 432.125 453.725 432.325C452.45 432.425 451.275 432.825 450.25 433.35C449.175 433.875 448.3 434.675 447.6 435.7C446.85 436.725 446.525 438.15 446.525 439.85C446.525 441.9 447.125 443.525 448.425 444.825C449.675 446.15 451.325 447.225 453.375 448C455.425 448.85 457.75 449.55 460.35 450.25C462.975 450.825 465.675 451.6 468.375 452.35C471.125 453.05 473.925 453.975 476.6 455.075C479.225 456.125 481.625 457.575 483.675 459.375C485.775 461.125 487.425 463.35 488.7 466.05C490 468.7 490.65 471.975 490.65 475.875C490.65 481.375 489.725 486 487.875 489.775C486.05 493.35 483.6 496.375 480.625 498.675ZM535.925 589.325C535.2 591.625 533.975 593.65 532.325 595.425C530.725 597.225 528.575 598.65 525.925 599.75C523.325 600.8 520.125 601.325 516.4 601.325H502.6V622.75H489.5V563.025H516.4C520.1 563.025 523.3 563.55 525.925 564.575C528.55 565.7 530.675 567.15 532.325 568.925C533.975 570.7 535.175 572.725 535.925 575.075C536.675 577.375 537.075 579.75 537.075 582.125C537.075 584.675 536.675 587.025 535.925 589.325ZM540.5 434.2H526.4V475.75C526.4 479.65 526.925 482.25 528.05 483.55C529.125 484.85 531.275 485.5 534.55 485.5C536.7 485.5 538.7 485.25 540.5 484.85V502.9C538.9 503.2 537.075 503.425 535.05 503.5C533.075 503.625 531.125 503.7 529.225 503.7C526.25 503.7 523.45 503.425 520.775 502.95C518.1 502.45 515.75 501.525 513.7 500.075C511.65 498.575 510.05 496.525 508.925 493.975C507.75 491.375 507.15 487.975 507.15 483.775V434.275H495.45V418.9H507.15V393.75H526.425V418.85H540.525L540.5 434.2ZM584.4 513.25C582.3 520 579.375 524.8 575.675 527.75C571.975 530.7 566.825 532.2 560.2 532.2C558.2 532.2 556.275 532.15 554.325 532C552.375 531.825 550.375 531.625 548.4 531.425V512.475C550.225 512.625 552.075 512.9 553.975 513.05C555.875 513.3 557.775 513.375 559.675 513.25C561.3 513.05 562.7 512.375 563.875 511.4C564.95 510.375 565.825 509.1 566.375 507.6C566.925 506.1 567.175 504.425 567.175 502.725C567.175 500.875 566.9 499.1 566.375 497.55L541.675 418.9H562.3L578.2 476.325H578.45L593.825 418.9H613.75L584.4 513.25ZM538.5 323.575C455.675 319.95 429.475 281.75 421.8 264.35C414.05 281.75 387.95 319.975 305.025 323.575C270.125 320.175 213.6 319.55 213.6 267.1C247.2 291.275 307.775 278.475 319.25 232.125C328 187.725 404.075 161.4 421.8 194.75C439.425 161.4 515.55 187.725 524.4 232.125C535.775 278.475 596.325 291.275 629.925 267.1C629.875 319.55 573.425 320.175 538.5 323.575ZM640.025 502.675H620.75V386.825H640.025V502.675ZM708.025 498.3C702.4 502.75 695.6 504.975 687.675 504.975C682.125 504.975 677.175 503.925 672.725 501.7C668.275 499.525 664.525 496.5 661.45 492.625C658.375 488.75 655.975 484.1 654.325 478.65C652.675 473.25 651.8 467.3 651.8 460.8C651.8 454.575 652.65 448.7 654.375 443.325C656.1 437.9 658.575 433.225 661.7 429.275C664.875 425.325 668.675 422.2 673.075 419.95C677.475 417.625 682.3 416.525 687.675 416.525C693.625 416.525 698.825 417.9 703.3 420.65C707.75 423.425 711.4 427.175 714.25 431.75C717.1 436.4 719.125 441.7 720.425 447.7C721.675 453.625 722.15 459.85 721.775 466.35H671.15C671.45 473.7 673 479.075 675.9 482.5C678.8 485.9 682.95 487.625 688.375 487.625C692.275 487.625 695.65 486.45 698.45 484.075C701.2 481.775 702.95 479.325 703.6 476.725H720.55C717.8 486.675 713.65 493.9 708.025 498.3Z" fill="black"/>
</g>
<defs>
<clipPath id="clip0_201_12">
<rect width="800" height="800" fill="white" transform="translate(9 9)"/>
</clipPath>
</defs>
</svg>
