<svg width="800" height="800" viewBox="0 0 800 800" fill="none" xmlns="http://www.w3.org/2000/svg">
<circle cx="400" cy="400" r="409" fill="#D9D9D9"/>
<g clip-path="url(#clip0_201_33)">
<path d="M347.242 288.123C394.038 286.098 408.812 264.5 413.186 254.601C417.586 264.5 432.359 286.098 479.13 288.123C498.878 286.223 530.825 285.848 530.825 256.176C511.752 269.899 477.605 262.65 471.106 236.427C466.206 211.33 423.16 196.456 413.186 215.304C403.212 196.456 360.166 211.33 355.242 236.427C348.767 262.65 314.596 269.899 295.572 256.176C295.522 285.898 327.494 286.248 347.242 288.123Z" fill="black"/>
<path d="M774.952 416.161C775.177 410.961 775.752 405.812 775.752 400.512C775.752 395.813 775.227 391.238 775.052 386.564C776.927 377.514 781.452 368.265 785.851 359.716C790.151 350.167 794.626 341.618 795.6 336.768C799.55 320.745 790.226 311.096 779.977 304.871C772.678 300.322 764.953 297.372 760.154 294.047C757.404 284.873 754.154 275.874 750.755 267C749.78 257.426 750.705 246.927 751.555 237.328C752.779 226.729 754.404 217.104 753.929 212.13C749.355 183.983 719.683 186.857 705.759 183.383C700.184 175.608 694.535 167.959 688.41 160.66C679.236 143.361 678.436 116.364 673.462 108.315C660.913 82.3421 633.016 95.6408 618.892 96.5407C611.118 90.9413 603.093 85.7418 594.894 80.8172C581.196 66.3936 570.746 42.7958 563.947 35.7215C552.648 23.7726 539.199 26.8723 528.625 31.4469C520.876 34.8215 514.202 39.7711 508.677 42.2208C499.028 39.3711 489.304 36.7714 479.33 34.6466C462.057 25.9224 445.283 6.54919 436.684 2.87453C422.035 -3.82484 410.437 2.1496 401.912 9.99887C395.713 16.2233 390.988 23.1226 386.614 27.2472C376.715 27.6472 366.866 28.2222 357.191 29.372C337.793 27.1723 315.12 13.4485 305.746 13.2236C289.598 11.1738 280.424 20.2229 275.224 31.3969C271.3 39.1711 269.025 47.1954 266.125 52.3449C257.051 55.8946 248.277 59.8192 239.603 64.0188C220.054 67.6435 194.707 63.4938 185.058 65.3937C168.859 68.2684 164.11 81.2422 162.21 92.5911C160.76 100.99 161.285 109.415 160.36 115.339C152.786 121.788 145.361 128.363 138.337 135.387C121.664 145.311 95.541 148.386 88.0917 153.885C63.4941 168.834 78.6676 195.281 80.8924 209.355C75.9429 217.654 71.3433 226.054 66.9937 234.778C61.0193 241.927 52.2701 247.977 44.5958 253.626C36.1966 259.975 28.1474 265.375 24.9977 269.15C13.7237 281.323 17.9233 294.472 23.6478 304.696C27.9724 312.171 33.0719 318.37 35.8216 323.544C33.7968 333.144 32.447 342.918 31.1721 352.742C23.2978 370.89 6.69938 389.688 2.52477 398.612C-6.62437 425.36 20.2231 437.034 30.9221 446.733C32.172 456.782 33.5469 466.906 35.6217 476.73C34.6718 496.003 23.0478 519.126 23.6478 528.3C22.7479 557.048 53.12 558.797 66.1688 564.572C70.4184 573.271 74.968 581.745 79.8675 590.044C82.6923 598.969 82.9922 609.593 83.4922 619.192C84.1921 629.691 84.3421 639.365 85.742 644.089C89.7916 660.188 103.065 663.788 114.739 664.637C123.413 665.162 131.413 664.163 137.312 664.762C144.211 671.637 151.536 678.086 158.91 684.411C170.109 700.559 176.133 725.832 181.758 733.706C191.482 746.58 204.531 746.83 215.805 743.93C224.254 741.405 231.778 737.506 237.578 736.081C246.302 740.405 255.201 744.405 264.275 748.055C271.924 753.329 278.774 761.078 284.873 768.703C291.773 776.827 297.947 783.926 301.997 786.876C308.546 791.626 315.02 793.125 320.97 792.625C327.019 791.676 332.569 788.776 337.493 785.326C344.593 780.452 350.367 774.477 355.317 771.352C364.941 772.552 374.715 773.202 384.564 773.702C403.362 780.002 423.56 795.45 432.834 798.35C448.483 803.924 458.807 794.4 465.881 785.326C471.006 778.552 474.656 771.277 478.255 766.628C488.104 764.603 497.653 761.928 507.177 759.179C526.751 758.779 550.848 767.303 560.422 766.978C576.521 765.828 583.87 755.029 587.57 744.03C590.12 735.581 590.92 727.107 592.869 721.457C600.969 716.633 608.968 711.583 616.642 706.234C625.416 702.359 635.94 700.659 645.964 699.734C656.513 698.309 665.888 697.134 670.512 695.335C686.011 689.76 689.16 676.911 688.66 664.762C688.46 656.088 686.661 647.939 686.861 642.09C692.935 634.89 698.635 627.391 704.159 619.717C707.534 616.892 711.183 614.192 715.358 611.917C719.908 608.968 724.832 606.393 729.607 604.043C739.181 599.344 748.155 595.419 752.005 592.269C773.028 573.096 754.579 549.898 749.855 536.325C753.404 527.25 756.804 518.101 759.704 508.727C769.228 491.804 791.151 476.605 795 468.081C809.574 443.433 783.752 427.485 774.952 416.161ZM401.762 733.281C218.28 733.281 68.9935 583.945 68.9935 400.512C68.9935 217.054 218.305 67.7934 401.762 67.7934C585.22 67.7934 734.506 217.079 734.506 400.537C734.481 583.995 585.245 733.281 401.762 733.281Z" fill="black"/>
<path d="M404.012 85.792C230.728 85.792 89.7666 226.779 89.7666 400.038C89.7666 573.296 230.728 714.233 404.012 714.233C577.271 714.233 718.258 573.271 718.258 400.038C718.258 226.754 577.246 85.792 404.012 85.792ZM404.012 694.16C241.852 694.16 109.865 562.247 109.865 400.013C109.865 237.853 241.827 105.89 404.012 105.89C566.197 105.89 698.135 237.828 698.135 400.013C698.11 562.222 566.197 694.16 404.012 694.16Z" fill="black"/>
<path d="M591.37 342.517L599.369 324.144L413.161 410.136L436.359 425.385L591.37 342.517Z" fill="black"/>
<path d="M372.99 434.109L268.65 484.329L268.325 483.529C267.725 482.829 267.175 482.104 266.525 481.429C253.376 467.756 230.278 465.931 211.73 477.055C201.456 483.229 193.832 492.553 190.207 503.202C186.508 514.176 187.557 525.45 193.082 534.699C194.482 537.049 196.132 539.149 197.931 541.099C208.031 551.573 223.904 555.098 239.078 551.148C245.627 549.623 252.451 547.123 257.301 542.324C265.275 536.374 271.25 528.275 274.274 519.251C276.224 513.476 276.699 507.677 276.049 502.078L275.424 500.503L393.188 452.082L372.99 434.109ZM262.75 515.451C260.101 523.326 254.301 530.35 246.477 534.999C232.753 543.199 216.03 542.224 206.756 532.6C205.506 531.325 204.431 529.95 203.531 528.425C199.856 522.226 199.231 514.601 201.731 507.077C204.406 499.103 210.18 492.128 218.005 487.454C231.753 479.255 248.477 480.255 257.776 489.879C258.976 491.154 260.076 492.578 260.951 494.053C264.675 500.203 265.275 507.802 262.75 515.451Z" fill="black"/>
<path d="M635.09 507.877C632.791 506.477 601.569 508.152 593.869 494.853C591.894 489.629 589.02 484.579 585.245 480.13C571.396 463.481 549.048 457.607 532.1 466.131C531.65 466.381 531.2 466.656 530.725 466.881L430.585 429.184L260.076 321.794L264.675 338.468L417.261 462.781L437.184 453.282L515.677 483.454C513.527 488.179 512.352 493.578 512.277 499.278C512.152 510.552 516.327 521.876 523.976 531.1C537.875 547.698 560.172 553.523 577.146 545.073C579.571 543.874 581.795 542.374 583.87 540.649C588.52 536.824 591.944 531.875 594.169 526.3C604.793 514.201 624.591 519.326 629.066 518.876C633.566 518.426 637.54 509.327 635.09 507.877ZM422.185 447.683C419.011 449.232 415.211 447.983 413.611 444.833C412.061 441.708 413.286 437.884 416.436 436.309C419.586 434.709 423.41 435.934 425.035 439.058C426.635 442.208 425.31 446.058 422.185 447.683ZM575.996 531.325C574.621 532.45 573.196 533.425 571.621 534.225C559.648 540.199 543.524 535.649 533.3 523.276C527.476 516.276 524.376 507.802 524.451 499.378C524.526 491.429 527.651 484.454 533.2 479.855C534.55 478.73 536.075 477.755 537.625 477.03C549.598 470.955 565.697 475.505 575.946 487.854C581.745 494.878 584.92 503.377 584.795 511.727C584.645 519.751 581.52 526.7 575.996 531.325Z" fill="black"/>
</g>
<defs>
<clipPath id="clip0_201_33">
<rect width="800" height="800" fill="white"/>
</clipPath>
</defs>
</svg>
